<mxfile host="app.diagrams.net" agent="Mozilla/5.0 (Macintosh; Intel Mac OS X 10_15_7) AppleWebKit/605.1.15 (KHTML, like Gecko) Version/17.6 Safari/605.1.15" version="24.7.12">
  <diagram name="PÃ¡gina-1" id="Pr-cVqk1cx71wpogHfzG">
    <mxGraphModel grid="0" page="0" gridSize="10" guides="1" tooltips="1" connect="1" arrows="1" fold="1" pageScale="1" pageWidth="850" pageHeight="1100" math="0" shadow="0">
      <root>
        <mxCell id="0" />
        <mxCell id="1" parent="0" />
        <mxCell id="j9dqzV7lEAajW8CDmfil-100" value="Pieza" style="whiteSpace=wrap;html=1;fontSize=22;fontStyle=1;strokeWidth=2;" vertex="1" parent="1">
          <mxGeometry x="-86" y="142" width="120" height="60" as="geometry" />
        </mxCell>
        <mxCell id="j9dqzV7lEAajW8CDmfil-101" style="edgeStyle=orthogonalEdgeStyle;rounded=0;orthogonalLoop=1;jettySize=auto;html=1;entryX=0.5;entryY=1;entryDx=0;entryDy=0;fontSize=12;startSize=8;endSize=8;endArrow=none;endFill=0;" edge="1" parent="1" source="j9dqzV7lEAajW8CDmfil-102" target="j9dqzV7lEAajW8CDmfil-100">
          <mxGeometry relative="1" as="geometry">
            <Array as="points">
              <mxPoint x="282" y="300" />
              <mxPoint x="-26" y="300" />
            </Array>
          </mxGeometry>
        </mxCell>
        <mxCell id="j9dqzV7lEAajW8CDmfil-102" value="Contener" style="rhombus;whiteSpace=wrap;html=1;fontSize=21;fontFamily=Helvetica;strokeWidth=2;" vertex="1" parent="1">
          <mxGeometry x="205" y="115" width="153" height="145" as="geometry" />
        </mxCell>
        <mxCell id="j9dqzV7lEAajW8CDmfil-103" value="" style="edgeStyle=orthogonalEdgeStyle;orthogonalLoop=1;jettySize=auto;html=1;rounded=0;fontSize=12;entryX=0.5;entryY=0;entryDx=0;entryDy=0;exitX=0.5;exitY=0;exitDx=0;exitDy=0;startArrow=none;startFill=0;endArrow=none;endFill=0;" edge="1" parent="1" source="j9dqzV7lEAajW8CDmfil-100" target="j9dqzV7lEAajW8CDmfil-102">
          <mxGeometry width="140" relative="1" as="geometry">
            <mxPoint x="-24" y="152" as="sourcePoint" />
            <mxPoint x="275" y="112" as="targetPoint" />
            <Array as="points">
              <mxPoint x="-26" y="83" />
              <mxPoint x="282" y="83" />
            </Array>
          </mxGeometry>
        </mxCell>
        <mxCell id="j9dqzV7lEAajW8CDmfil-104" value="Estar contenido en" style="text;strokeColor=none;fillColor=none;html=1;align=center;verticalAlign=middle;whiteSpace=wrap;rounded=0;fontSize=16;" vertex="1" parent="1">
          <mxGeometry x="41" y="307" width="183" height="30" as="geometry" />
        </mxCell>
        <mxCell id="j9dqzV7lEAajW8CDmfil-105" value="Contener a" style="text;strokeColor=none;fillColor=none;html=1;align=center;verticalAlign=middle;whiteSpace=wrap;rounded=0;fontSize=16;" vertex="1" parent="1">
          <mxGeometry x="74.5" y="40" width="116" height="30" as="geometry" />
        </mxCell>
      </root>
    </mxGraphModel>
  </diagram>
</mxfile>
